<svg width="18" height="18" viewBox="0 0 18 18" fill="none" xmlns="http://www.w3.org/2000/svg">
<path d="M12 0C12.4734 0 12.8571 0.366312 12.8571 0.818182V1.63636H14.5714C15.2534 1.63636 15.9073 1.89515 16.3895 2.35547C16.8717 2.81579 17.1429 3.43992 17.1429 4.09091V9.48899C17.1429 9.94086 16.7591 10.3072 16.2857 10.3072C15.8123 10.3072 15.4286 9.94086 15.4286 9.48899V8.18182H1.71429V15.5455C1.71429 15.7625 1.80466 15.9705 1.9654 16.1239C2.12615 16.2774 2.3441 16.3636 2.57143 16.3636H9.85714C10.3305 16.3636 10.7143 16.7299 10.7143 17.1818C10.7143 17.6337 10.3305 18 9.85714 18H2.57143C1.88944 18 1.23558 17.7412 0.753348 17.2809C0.271112 16.8206 0 16.1964 0 15.5455V4.09091C0 3.43992 0.271112 2.81579 0.753348 2.35547C1.23558 1.89515 1.88944 1.63636 2.57143 1.63636H4.28571V0.818182C4.28571 0.366312 4.66947 0 5.14286 0C5.61624 0 6 0.366312 6 0.818182V1.63636H11.1429V0.818182C11.1429 0.366312 11.5266 0 12 0ZM14.5714 11.4545C15.0448 11.4545 15.4286 11.8209 15.4286 12.2727V13.9091H17.1429C17.6162 13.9091 18 14.2754 18 14.7273C18 15.1791 17.6162 15.5455 17.1429 15.5455H15.4286V17.1818C15.4286 17.6337 15.0448 18 14.5714 18C14.098 18 13.7143 17.6337 13.7143 17.1818V15.5455H12C11.5266 15.5455 11.1429 15.1791 11.1429 14.7273C11.1429 14.2754 11.5266 13.9091 12 13.9091H13.7143V12.2727C13.7143 11.8209 14.098 11.4545 14.5714 11.4545ZM2.57143 3.27273C2.3441 3.27273 2.12615 3.35899 1.9654 3.51243C1.80466 3.66587 1.71429 3.87391 1.71429 4.09091V6.54545H15.4286V4.09091C15.4286 3.87391 15.3382 3.66587 15.1775 3.51243C15.0167 3.35899 14.7988 3.27273 14.5714 3.27273H12.8571V4.09091C12.8571 4.54278 12.4734 4.90909 12 4.90909C11.5266 4.90909 11.1429 4.54278 11.1429 4.09091V3.27273H6V4.09091C6 4.54278 5.61624 4.90909 5.14286 4.90909C4.66947 4.90909 4.28571 4.54278 4.28571 4.09091V3.27273H2.57143Z" fill="white"/>
</svg>
