<svg width="35" height="35" viewBox="0 0 35 35" fill="none" xmlns="http://www.w3.org/2000/svg">
<rect width="35" height="35" rx="17.5" fill="#4A4A4A"/>
<path d="M17.5 19.3184C18.7055 19.3184 19.8614 19.798 20.7139 20.6504C21.566 21.5027 22.0458 22.658 22.0459 23.8633V25.6816C22.0459 26.1836 21.6386 26.5906 21.1367 26.5908C20.6346 26.5908 20.2275 26.1837 20.2275 25.6816V23.8633C20.2274 23.1402 19.9399 22.4469 19.4287 21.9355C18.9172 21.4241 18.2233 21.1367 17.5 21.1367H12.0459C11.3226 21.1367 10.6287 21.4241 10.1172 21.9355C9.60586 22.4469 9.31848 23.1401 9.31836 23.8633V25.6816C9.31836 26.1837 8.91122 26.5908 8.40918 26.5908C7.9071 26.5908 7.5 26.1837 7.5 25.6816V23.8633C7.50012 22.6579 7.97973 21.5027 8.83203 20.6504C9.68447 19.798 10.8404 19.3184 12.0459 19.3184H17.5ZM23.8633 12.9551C24.3652 12.9551 24.7722 13.3614 24.7725 13.8633V15.6816H26.5908C27.0928 15.6816 27.4999 16.0888 27.5 16.5908C27.5 17.0929 27.0929 17.5 26.5908 17.5H24.7725V19.3184C24.7724 19.8204 24.3653 20.2275 23.8633 20.2275C23.3614 20.2273 22.9541 19.8203 22.9541 19.3184V17.5H21.1367C20.6346 17.5 20.2275 17.0929 20.2275 16.5908C20.2276 16.0888 20.6347 15.6816 21.1367 15.6816H22.9541V13.8633C22.9543 13.3615 23.3615 12.9553 23.8633 12.9551ZM14.7725 8.40918C17.2828 8.40918 19.3184 10.4447 19.3184 12.9551C19.3181 15.4653 17.2827 17.5 14.7725 17.5C12.2623 17.4999 10.2278 15.4652 10.2275 12.9551C10.2275 10.4448 12.2622 8.40932 14.7725 8.40918ZM14.7725 10.2275C13.2664 10.2277 12.0459 11.4489 12.0459 12.9551C12.0461 14.461 13.2665 15.6815 14.7725 15.6816C16.2785 15.6816 17.4998 14.4611 17.5 12.9551C17.5 11.4488 16.2787 10.2275 14.7725 10.2275Z" fill="white"/>
</svg>
