<svg width="30" height="30" viewBox="0 0 30 30" fill="none" xmlns="http://www.w3.org/2000/svg">
<rect width="30" height="30" rx="5" fill="#4A4A4A"/>
<path d="M18.334 5.68164C18.8776 5.68164 19.3184 6.12236 19.3184 6.66602V7.34961H20.833C22.2971 7.34961 23.4844 8.53685 23.4844 10.001V21.667C23.4844 23.1311 22.2971 24.3184 20.833 24.3184H9.16699C7.70286 24.3184 6.51562 23.1311 6.51562 21.667V10.001C6.51562 8.53685 7.70286 7.34961 9.16699 7.34961H10.6816V6.66602C10.6816 6.12236 11.1224 5.68164 11.666 5.68164C12.2097 5.68164 12.6504 6.12236 12.6504 6.66602V7.34961H17.3496V6.66602C17.3496 6.12236 17.7903 5.68164 18.334 5.68164ZM8.48438 21.667C8.48438 22.0438 8.79017 22.3496 9.16699 22.3496H20.833C21.2098 22.3496 21.5156 22.0438 21.5156 21.667V14.3184H8.48438V21.667ZM11.6748 19.0156C12.2184 19.0156 12.6592 19.4564 12.6592 20C12.6592 20.5436 12.2184 20.9844 11.6748 20.9844H11.666C11.1224 20.9844 10.6816 20.5437 10.6816 20C10.6816 19.4563 11.1224 19.0156 11.666 19.0156H11.6748ZM15.0088 19.0156C15.5524 19.0156 15.9932 19.4564 15.9932 20C15.9932 20.5436 15.5524 20.9844 15.0088 20.9844H15C14.4563 20.9844 14.0156 20.5437 14.0156 20C14.0156 19.4563 14.4563 19.0156 15 19.0156H15.0088ZM18.3428 19.0156C18.8864 19.0156 19.3271 19.4564 19.3271 20C19.3271 20.5436 18.8864 20.9844 18.3428 20.9844H18.334C17.7903 20.9844 17.3496 20.5437 17.3496 20C17.3496 19.4563 17.7903 19.0156 18.334 19.0156H18.3428ZM11.6748 15.6816C12.2184 15.6817 12.6592 16.1224 12.6592 16.666C12.6592 17.2097 12.2184 17.6504 11.6748 17.6504H11.666C11.1224 17.6504 10.6816 17.2097 10.6816 16.666C10.6816 16.1224 11.1224 15.6816 11.666 15.6816H11.6748ZM15.0088 15.6816C15.5524 15.6817 15.9932 16.1224 15.9932 16.666C15.9932 17.2097 15.5524 17.6504 15.0088 17.6504H15C14.4563 17.6504 14.0156 17.2097 14.0156 16.666C14.0156 16.1224 14.4563 15.6816 15 15.6816H15.0088ZM18.3428 15.6816C18.8864 15.6817 19.3271 16.1224 19.3271 16.666C19.3271 17.2097 18.8864 17.6504 18.3428 17.6504H18.334C17.7903 17.6504 17.3496 17.2097 17.3496 16.666C17.3496 16.1224 17.7903 15.6816 18.334 15.6816H18.3428ZM9.16699 9.31836C8.79017 9.31836 8.48438 9.62416 8.48438 10.001V12.3496H21.5156V10.001C21.5156 9.62416 21.2098 9.31836 20.833 9.31836H19.3184V9.99902C19.3184 10.5427 18.8776 10.9834 18.334 10.9834C17.7903 10.9834 17.3496 10.5427 17.3496 9.99902V9.31836H12.6504V9.99902C12.6504 10.5427 12.2097 10.9834 11.666 10.9834C11.1224 10.9834 10.6816 10.5427 10.6816 9.99902V9.31836H9.16699Z" fill="white"/>
</svg>
