<svg width="20" height="20" viewBox="0 0 20 20" fill="none" xmlns="http://www.w3.org/2000/svg">
<path d="M13.2002 1C13.6419 1.00011 14 1.36655 14 1.81836V2.63672H15.5996C16.9251 2.63672 18 3.7352 18 5.09082V16.5459C17.9999 17.9014 16.925 19 15.5996 19H4.40039C3.07499 19 2.00013 17.9014 2 16.5459V5.09082C2.00002 3.7352 3.07492 2.63672 4.40039 2.63672H6V1.81836C6 1.36655 6.35807 1.00011 6.7998 1C7.24163 1 7.59961 1.36648 7.59961 1.81836V2.63672H12.4004V1.81836C12.4004 1.36648 12.7584 1 13.2002 1ZM3.59961 16.5459C3.59974 16.9977 3.95864 17.3643 4.40039 17.3643H15.5996C16.0414 17.3643 16.4003 16.9977 16.4004 16.5459V9.18164H3.59961V16.5459ZM6.80762 14.0908C7.24944 14.0908 7.60741 14.4573 7.60742 14.9092C7.60742 15.3611 7.24944 15.7275 6.80762 15.7275H6.7998C6.35807 15.7274 6 15.361 6 14.9092C6.00001 14.4574 6.35807 14.0909 6.7998 14.0908H6.80762ZM10.0078 14.0908C10.4496 14.0908 10.8076 14.4573 10.8076 14.9092C10.8076 15.361 10.4496 15.7275 10.0078 15.7275H10C9.55817 15.7275 9.2002 15.3611 9.2002 14.9092C9.20021 14.4573 9.55818 14.0908 10 14.0908H10.0078ZM13.208 14.0908C13.6497 14.091 14.0078 14.4574 14.0078 14.9092C14.0078 15.361 13.6497 15.7274 13.208 15.7275H13.2002C12.7584 15.7275 12.4004 15.3611 12.4004 14.9092C12.4004 14.4573 12.7584 14.0908 13.2002 14.0908H13.208ZM6.80762 10.8184C7.24944 10.8184 7.60742 11.1848 7.60742 11.6367C7.60728 12.0885 7.24936 12.4551 6.80762 12.4551H6.7998C6.35815 12.455 6.00014 12.0884 6 11.6367C6 11.1849 6.35807 10.8185 6.7998 10.8184H6.80762ZM10.0078 10.8184C10.4496 10.8184 10.8076 11.1849 10.8076 11.6367C10.8075 12.0885 10.4495 12.4551 10.0078 12.4551H10C9.55826 12.4551 9.20034 12.0885 9.2002 11.6367C9.2002 11.1848 9.55817 10.8184 10 10.8184H10.0078ZM13.208 10.8184C13.6497 10.8185 14.0078 11.1849 14.0078 11.6367C14.0077 12.0884 13.6496 12.4549 13.208 12.4551H13.2002C12.7585 12.4551 12.4005 12.0885 12.4004 11.6367C12.4004 11.1848 12.7584 10.8184 13.2002 10.8184H13.208ZM4.40039 4.27246C3.95857 4.27246 3.59963 4.63895 3.59961 5.09082V7.5459H16.4004V5.09082C16.4004 4.63895 16.0414 4.27246 15.5996 4.27246H14V5.09082C14 5.54263 13.6419 5.90907 13.2002 5.90918C12.7584 5.90918 12.4004 5.54269 12.4004 5.09082V4.27246H7.59961V5.09082C7.5996 5.54269 7.24163 5.90918 6.7998 5.90918C6.35807 5.90907 6.00001 5.54263 6 5.09082V4.27246H4.40039Z" fill="#005B64"/>
</svg>
