<svg width="24" height="24" viewBox="0 0 24 24" fill="none" xmlns="http://www.w3.org/2000/svg">
<path d="M15.2639 6.36144C17.0094 6.36161 18.4254 7.77169 18.4383 9.5164C18.5015 9.51324 18.5652 9.51167 18.6289 9.51347C19.2757 9.53184 19.889 9.80689 20.3334 10.2777C20.7777 10.7486 21.0173 11.377 20.999 12.0245C20.9807 12.6703 20.7066 13.2816 20.2386 13.7263L20.2396 13.7273L16.4787 17.3285C15.7358 18.1499 14.7049 18.5408 13.6268 18.5409H10.3507C10.0295 18.541 9.89641 18.6443 9.84538 18.7122C9.81204 18.7567 9.77381 18.7978 9.732 18.8345L9.06544 19.4177L9.27949 19.632C9.59196 19.945 9.5918 20.4522 9.27949 20.7652C8.96684 21.0783 8.46038 21.0782 8.1477 20.7652L7.35408 19.9706C7.34225 19.9598 7.33117 19.9481 7.31988 19.9364L4.0721 16.6845C4.06218 16.6752 4.05136 16.6661 4.04181 16.6562C4.03699 16.6512 4.03278 16.6456 4.02812 16.6405L3.23451 15.8459C2.92183 15.5328 2.92183 15.0258 3.23451 14.7127C3.54721 14.4 4.05373 14.3997 4.36629 14.7127L4.62822 14.975L8.61488 11.1272C9.05604 10.5873 9.71495 10.3786 10.3507 10.3785H12.2008C12.1281 10.1116 12.0885 9.83085 12.0884 9.54087C12.0884 7.78503 13.5102 6.36151 15.2639 6.36144ZM18.584 11.1164C18.3617 11.1101 18.1455 11.1925 17.9839 11.3454L17.979 11.3503L17.5167 11.7789C17.491 11.8048 17.4631 11.8283 17.4365 11.8533L14.5396 14.5473C14.5138 14.5714 14.4855 14.5919 14.4575 14.6119C14.0082 15.0267 13.4204 15.2607 12.8068 15.2607H11.1697C10.7277 15.2605 10.3683 14.9018 10.3683 14.4592C10.3685 14.0169 10.7279 13.658 11.1697 13.6578H12.8068C13.0287 13.6578 13.2421 13.5693 13.3991 13.4122C13.5558 13.2551 13.6443 13.0422 13.6444 12.8201C13.6443 12.5979 13.5559 12.3842 13.3991 12.2271C13.2421 12.0701 13.0286 11.9815 12.8068 11.9815H10.3507C10.0291 11.9816 9.89529 12.0848 9.8444 12.1527C9.81877 12.1869 9.79011 12.2189 9.75937 12.2486L5.76099 16.1091L7.93073 18.2816L8.62856 17.67C9.0696 17.1423 9.72143 16.9381 10.3507 16.938H13.6268C14.3296 16.9379 14.9161 16.6858 15.3166 16.2275C15.3321 16.2099 15.3486 16.1929 15.3655 16.1767L19.1323 12.5686L19.1362 12.5657C19.2978 12.4127 19.3918 12.2011 19.3981 11.9785C19.4043 11.7562 19.322 11.5404 19.1694 11.3787C19.0167 11.2169 18.8061 11.1228 18.584 11.1164ZM15.2639 7.96437C14.3946 7.96443 13.6893 8.67051 13.6893 9.54087C13.6897 10.4109 14.3949 11.1163 15.2639 11.1164C15.6415 11.1163 15.9877 10.9822 16.2588 10.7602L16.3966 10.632C16.6689 10.3489 16.8372 9.96495 16.8374 9.54087C16.8374 8.67057 16.133 7.96453 15.2639 7.96437ZM7.07456 3C8.87332 3 10.3319 4.45969 10.3321 6.26065C10.332 8.06173 8.87341 9.52227 7.07456 9.52227C5.27612 9.52178 3.81809 8.06143 3.81799 6.26065C3.81824 4.45999 5.27621 3.00049 7.07456 3ZM7.07456 4.60292C6.16059 4.60341 5.41915 5.34548 5.41891 6.26065C5.419 7.17594 6.1605 7.91886 7.07456 7.91935C7.98903 7.91935 8.73109 7.17625 8.73119 6.26065C8.73094 5.34518 7.98894 4.60292 7.07456 4.60292Z" fill="#4A4A4A"/>
</svg>
