<svg width="24" height="24" viewBox="0 0 24 24" fill="none" xmlns="http://www.w3.org/2000/svg">
<path fill-rule="evenodd" clip-rule="evenodd" d="M19.5799 19.3985C20.0214 19.3988 20.3796 19.7568 20.3797 20.1983C20.3797 20.6399 20.0215 20.9978 19.5799 20.9981H4.82407C4.38224 20.9981 4.02426 20.6401 4.02426 20.1983C4.02443 19.7566 4.38234 19.3985 4.82407 19.3985H19.5799ZM7.28305 10.3819C7.72469 10.382 8.08271 10.74 8.08286 11.1817V16.9199C8.08286 17.3617 7.72478 17.7196 7.28305 17.7197C6.84122 17.7197 6.48325 17.3618 6.48325 16.9199V11.1817C6.4834 10.74 6.84132 10.3819 7.28305 10.3819ZM10.5623 10.3819C11.0039 10.382 11.362 10.7401 11.3622 11.1817V16.9199C11.3622 17.3617 11.004 17.7196 10.5623 17.7197C10.1205 17.7197 9.76255 17.3618 9.76255 16.9199V11.1817C9.76269 10.74 10.1206 10.3819 10.5623 10.3819ZM13.8416 10.3819C14.2832 10.3821 14.6413 10.7401 14.6415 11.1817V16.9199C14.6415 17.3616 14.2833 17.7195 13.8416 17.7197C13.3998 17.7197 13.0418 17.3618 13.0418 16.9199V11.1817C13.042 10.74 13.3999 10.3819 13.8416 10.3819ZM17.1209 10.3819C17.5625 10.3821 17.9206 10.7401 17.9207 11.1817V16.9199C17.9207 17.3616 17.5626 17.7195 17.1209 17.7197C16.6791 17.7197 16.3211 17.3618 16.3211 16.9199V11.1817C16.3213 10.74 16.6792 10.3819 17.1209 10.3819ZM12.2059 3.00197C12.5777 3.00337 12.9449 3.0892 13.2782 3.25392L13.2772 3.2549L19.7235 6.40626L19.827 6.4629C20.8492 7.0776 20.432 8.70274 19.1913 8.70314H5.21274C3.92718 8.70304 3.5336 6.96983 4.68051 6.40724V6.40626L11.1288 3.24806L11.1307 3.24708C11.4653 3.08458 11.8339 3.0007 12.2059 3.00197ZM12.2 4.60158C12.0721 4.60114 11.945 4.63067 11.8299 4.68654L11.829 4.68556L6.89536 7.10353H17.5067L12.5721 4.69044L12.5692 4.68849C12.4545 4.63183 12.3279 4.60209 12.2 4.60158Z" fill="#4A4A4A"/>
</svg>
