<svg width="38" height="38" viewBox="0 0 38 38" fill="none" xmlns="http://www.w3.org/2000/svg">
<g filter="url(#filter0_d_5057_4481)">
<rect x="1" y="1" width="34" height="34" rx="17" fill="white" shape-rendering="crispEdges"/>
<path d="M18 11.9995C18.1363 11.9995 18.2732 12.0256 18.4014 12.0757C18.4397 12.0907 18.477 12.1089 18.5137 12.1284C18.5993 12.174 18.6803 12.2312 18.7529 12.3013L23.6875 17.062C24.1034 17.4632 24.1042 18.1129 23.6885 18.5142C23.2725 18.9154 22.5976 18.9154 22.1816 18.5142L19.0908 15.5327V22.9106C19.0908 23.5127 18.603 24.0003 18.001 24.0005C17.3988 24.0005 16.9102 23.5128 16.9102 22.9106V15.5317L13.8174 18.5142C13.4014 18.9151 12.7274 18.9152 12.3115 18.5142C11.896 18.113 11.896 17.4631 12.3115 17.062L17.2461 12.3013C17.2978 12.2514 17.3543 12.2079 17.4131 12.1704C17.4724 12.1326 17.5352 12.1009 17.5996 12.0757C17.7277 12.0257 17.8638 11.9995 18 11.9995Z" fill="#006C76"/>
</g>
<defs>
<filter id="filter0_d_5057_4481" x="0" y="0" width="38" height="38" filterUnits="userSpaceOnUse" color-interpolation-filters="sRGB">
<feFlood flood-opacity="0" result="BackgroundImageFix"/>
<feColorMatrix in="SourceAlpha" type="matrix" values="0 0 0 0 0 0 0 0 0 0 0 0 0 0 0 0 0 0 127 0" result="hardAlpha"/>
<feOffset dx="1" dy="1"/>
<feGaussianBlur stdDeviation="1"/>
<feComposite in2="hardAlpha" operator="out"/>
<feColorMatrix type="matrix" values="0 0 0 0 0 0 0 0 0 0 0 0 0 0 0 0 0 0 0.2 0"/>
<feBlend mode="normal" in2="BackgroundImageFix" result="effect1_dropShadow_5057_4481"/>
<feBlend mode="normal" in="SourceGraphic" in2="effect1_dropShadow_5057_4481" result="shape"/>
</filter>
</defs>
</svg>
