<svg width="18" height="22" viewBox="0 0 18 22" fill="none" xmlns="http://www.w3.org/2000/svg">
<path d="M7.5 21H3C2.46957 21 1.96086 20.7893 1.58579 20.4142C1.21071 20.0391 1 19.5304 1 19V3.00001C1 2.46957 1.21071 1.96087 1.58579 1.58579C1.96086 1.21072 2.46957 1.00001 3 1.00001H11C11.3169 0.99923 11.6308 1.06122 11.9236 1.18239C12.2164 1.30357 12.4823 1.48153 12.706 1.70601L16.294 5.29401C16.5185 5.51768 16.6964 5.78359 16.8176 6.0764C16.9388 6.36921 17.0008 6.68312 17 7.00001V13" stroke="black" stroke-width="2" stroke-linecap="round" stroke-linejoin="round"/>
<path d="M11 1V6C11 6.26522 11.1054 6.51957 11.2929 6.70711C11.4804 6.89464 11.7348 7 12 7H17" stroke="black" stroke-width="2" stroke-linecap="round" stroke-linejoin="round"/>
<path d="M11 19L13 21L17 17" stroke="black" stroke-width="2" stroke-linecap="round" stroke-linejoin="round"/>
</svg>
