<svg width="18" height="18" viewBox="0 0 18 18" fill="none" xmlns="http://www.w3.org/2000/svg">
<path d="M1.51907 3.06205C1.08867 3.06205 0.728143 2.91559 0.437494 2.62265C0.145831 2.32869 0 1.96482 0 1.53103C0 1.09724 0.145831 0.733362 0.437494 0.439405C0.728143 0.146469 1.08867 0 1.51907 0H14.1428C14.5732 0 14.9342 0.146469 15.2259 0.439405C15.5165 0.733362 15.6619 1.09724 15.6619 1.53103C15.6619 1.96482 15.5165 2.32869 15.2259 2.62265C14.9342 2.91559 14.5732 3.06205 14.1428 3.06205H1.51907ZM1.51907 9.18617C1.08867 9.18617 0.728143 9.03919 0.437494 8.74523C0.145831 8.45229 0 8.08893 0 7.65514C0 7.22135 0.145831 6.85747 0.437494 6.56351C0.728143 6.27058 1.08867 6.12411 1.51907 6.12411H14.1428C14.5732 6.12411 14.9342 6.27058 15.2259 6.56351C15.5165 6.85747 15.6619 7.22135 15.6619 7.65514C15.6619 8.08893 15.5165 8.45229 15.2259 8.74523C14.9342 9.03919 14.5732 9.18617 14.1428 9.18617H1.51907ZM1.51907 15.3103C1.08867 15.3103 0.728143 15.1633 0.437494 14.8693C0.145831 14.5764 0 14.213 0 13.7792C0 13.3455 0.145831 12.9816 0.437494 12.6876C0.728143 12.3947 1.08867 12.2482 1.51907 12.2482H8.0665C8.4969 12.2482 8.85794 12.3947 9.1496 12.6876C9.44025 12.9816 9.58557 13.3455 9.58557 13.7792C9.58557 14.213 9.44025 14.5764 9.1496 14.8693C8.85794 15.1633 8.4969 15.3103 8.0665 15.3103H1.51907Z" fill="white"/>
<path fill-rule="evenodd" clip-rule="evenodd" d="M16.1655 11.8955C16.5829 11.4778 17.259 11.4776 17.6763 11.8955C18.0935 12.3135 18.0933 12.9911 17.6763 13.4092L16.3023 14.7851L17.687 16.1728C18.1041 16.5909 18.1043 17.2686 17.687 17.6865C17.2698 18.1045 16.5937 18.1043 16.1763 17.6865L14.7905 16.2988L13.4068 17.6865C12.9894 18.1044 12.3123 18.1045 11.895 17.6865C11.478 17.2686 11.4782 16.5909 11.895 16.1728L13.2788 14.7851L11.9058 13.4101C11.4885 12.9921 11.4885 12.3136 11.9058 11.8955C12.3231 11.4775 13.0001 11.4776 13.4175 11.8955L14.7905 13.2715L16.1655 11.8955Z" fill="white"/>
</svg>
