<svg width="35" height="35" viewBox="0 0 35 35" fill="none" xmlns="http://www.w3.org/2000/svg">
<rect width="35" height="35" rx="17.5" fill="#006C76"/>
<g clip-path="url(#clip0_2798_17548)">
<path d="M15.4668 9.16699C15.9638 9.16699 16.3661 9.56945 16.3662 10.0664C16.3662 10.5635 15.9639 10.9668 15.4668 10.9668H11.8672C11.6285 10.9668 11.3993 11.0617 11.2305 11.2305C11.0617 11.3993 10.9668 11.6285 10.9668 11.8672V24.4668C10.9668 24.7055 11.0617 24.9347 11.2305 25.1035C11.3993 25.2723 11.6285 25.3672 11.8672 25.3672H15.4668C15.9639 25.3672 16.3662 25.7705 16.3662 26.2676C16.3661 26.7645 15.9638 27.167 15.4668 27.167H11.8672C11.1511 27.167 10.4634 26.8833 9.95703 26.377C9.45066 25.8706 9.16699 25.1829 9.16699 24.4668V11.8672C9.16699 11.1511 9.45066 10.4634 9.95703 9.95703C10.4634 9.45066 11.1511 9.16699 11.8672 9.16699H15.4668ZM21.1309 13.0303C21.4823 12.679 22.0509 12.6791 22.4023 13.0303L26.9033 17.5303C26.9247 17.5516 26.9447 17.5743 26.9639 17.5977C26.9913 17.6313 27.0152 17.6668 27.0371 17.7031C27.0755 17.7666 27.1071 17.8347 27.1289 17.9072C27.1631 18.0214 27.1742 18.1411 27.1621 18.2588C27.1401 18.4757 27.0407 18.669 26.8926 18.8125L22.4023 23.3037C22.051 23.6543 21.4822 23.6544 21.1309 23.3037C20.7794 22.9522 20.7794 22.3818 21.1309 22.0303L24.0928 19.0664H15.4668C14.9698 19.0664 14.5674 18.664 14.5674 18.167C14.5674 17.6699 14.9698 17.2676 15.4668 17.2676H24.0947L21.1309 14.3027C20.7794 13.9512 20.7794 13.3818 21.1309 13.0303Z" fill="white"/>
</g>
<defs>
<clipPath id="clip0_2798_17548">
<rect width="20" height="20" fill="white" transform="translate(7.5 7.5)"/>
</clipPath>
</defs>
</svg>
