<svg width="19" height="19" viewBox="0 0 19 19" fill="none" xmlns="http://www.w3.org/2000/svg">
<path d="M9.16699 0C14.2293 0.00026385 18.3338 4.10372 18.334 9.16602C18.334 14.2285 14.2294 18.3327 9.16699 18.333C4.10453 18.3328 0 14.2285 0 9.16602C0.000175755 4.10366 4.10464 0.000175751 9.16699 0ZM9.16699 1.66602C5.02511 1.66619 1.66717 5.02414 1.66699 9.16602C1.66699 13.308 5.02501 16.6658 9.16699 16.666C13.3089 16.6658 16.667 13.308 16.667 9.16602C16.6668 5.02419 13.3088 1.66628 9.16699 1.66602ZM12.501 8.33301C12.9608 8.33345 13.334 8.70605 13.334 9.16602C13.334 9.62598 12.9608 9.99858 12.501 9.99902H5.83398C5.37375 9.99902 5.00098 9.62625 5.00098 9.16602C5.00098 8.70578 5.37375 8.33301 5.83398 8.33301H12.501Z" fill="#E23636"/>
</svg>
