<svg width="44" height="44" viewBox="0 0 44 44" fill="none" xmlns="http://www.w3.org/2000/svg">
<path d="M13.0098 29.1006C13.0497 29.2961 13.2039 29.4503 13.3994 29.4902L13.5 29.5H31.4004L31.501 29.4902C31.6963 29.4502 31.8497 29.2959 31.8896 29.1006L31.9004 29V27.667C31.9004 27.4254 31.7287 27.2235 31.501 27.1768L31.4004 27.167V25.667C32.5048 25.6672 33.4004 26.5626 33.4004 27.667V29C33.4004 30.1044 32.5048 30.9998 31.4004 31H26.2725C26.2757 31.1543 26.2604 31.317 26.2227 31.4873C25.8398 33.2154 24.2864 34.4999 22.4502 34.5C20.6139 34.5 19.0595 33.2156 18.6768 31.4873C18.639 31.317 18.6247 31.1543 18.6279 31H13.5C12.3954 31 11.5 30.1046 11.5 29V27.667C11.5 26.5624 12.3954 25.667 13.5 25.667V27.167L13.3994 27.1768C13.1715 27.2233 13 27.4253 13 27.667V29L13.0098 29.1006ZM20.5879 30.667C20.3117 30.667 20.0819 30.8935 20.1416 31.1631C20.3591 32.1447 21.2073 32.9007 22.2412 32.9912L22.4502 33C23.5067 32.9999 24.4075 32.3058 24.707 31.3564L24.7588 31.1631C24.8185 30.8935 24.5886 30.667 24.3125 30.667H20.5879ZM20.6777 13.9375L20.6709 14.0225C20.6371 14.217 20.4897 14.3773 20.2949 14.4346L20.0039 14.5264C17.0432 15.5384 15.3623 18.3599 15.3623 21.707V26.667L15.3525 26.7676C15.3125 26.9629 15.1583 27.1164 14.9629 27.1562L14.8623 27.167H13.5V25.667H13.8623V21.707C13.8623 17.9629 15.7269 14.5547 19.2227 13.2148C19.483 11.6693 20.8508 10.5 22.4502 10.5C24.0491 10.5001 25.4149 11.669 25.6758 13.2139C29.1941 14.5535 31.0371 17.9666 31.0371 21.707V25.667H31.4004V27.167H30.0371L29.9365 27.1562C29.7414 27.1162 29.5879 26.9627 29.5479 26.7676L29.5371 26.667V21.707C29.5371 18.3593 27.8765 15.5379 24.8984 14.5264L24.6064 14.4336C24.4111 14.3766 24.2633 14.2165 24.2295 14.0215L24.2217 13.9365V13.75C24.2217 12.8532 23.5161 12.0996 22.6299 12.0088L22.4502 12C21.4816 12 20.6777 12.7933 20.6777 13.75V13.9375Z" fill="#2D2D2D"/>
<path d="M26 15.5C26 13.8431 27.3431 12.5 29 12.5C30.6569 12.5 32 13.8431 32 15.5C32 17.1569 30.6569 18.5 29 18.5C27.3431 18.5 26 17.1569 26 15.5Z" fill="#FF3764"/>
</svg>
