<svg width="22" height="22" viewBox="0 0 22 22" fill="none" xmlns="http://www.w3.org/2000/svg">
<path fill-rule="evenodd" clip-rule="evenodd" d="M6.45898 0C8.07278 0.000211885 9.38565 1.31293 9.38574 2.92676C9.38574 3.85044 9.5142 4.73793 9.75391 5.57324L9.86426 5.92773L9.87305 5.95508C10.1755 6.91771 9.98279 8.07486 9.14746 8.89062L9.14941 8.8916L7.96191 10.084C8.98047 11.6612 10.3271 13.006 11.9033 14.0254L13.1113 12.8193C13.8662 12.0917 14.9069 11.8444 15.8574 12.0752L16.0459 12.1279L16.0732 12.1367C17.0106 12.4463 18.0186 12.6152 19.0742 12.6152C20.6879 12.6154 22.0006 13.9274 22.001 15.541V19.0742C22.0008 20.688 20.688 22.0008 19.0742 22.001C8.53896 22.001 0 13.462 0 2.92676C9.15329e-05 1.31285 1.31285 9.15329e-05 2.92676 0H6.45898ZM2.92676 1.91797C2.37184 1.91806 1.91806 2.37184 1.91797 2.92676C1.91797 12.2549 9.35941 19.8432 18.6309 20.0781L19.0742 20.083C19.5943 20.0829 20.026 19.6837 20.0781 19.1768L20.083 19.0742V15.541C20.0826 15.0211 19.6836 14.5892 19.1768 14.5371L19.0742 14.5322C17.8129 14.5322 16.6019 14.3303 15.4717 13.957C15.1185 13.846 14.724 13.9268 14.4414 14.1992L12.4951 16.1465L12.4297 16.2021C12.2929 16.3007 12.1171 16.3276 11.958 16.2734L11.8799 16.2402C9.45346 14.9267 7.4198 12.9705 6.02051 10.5918L5.75 10.1113C5.6408 9.90903 5.68061 9.65904 5.84277 9.49609L7.79102 7.53809C8.03808 7.30846 8.13127 6.97856 8.07617 6.66309L8.04395 6.5293C7.71736 5.54064 7.52232 4.49036 7.47852 3.39844L7.46875 2.92676C7.46866 2.37191 7.0138 1.91818 6.45898 1.91797H2.92676ZM16.4512 1.87793C16.954 1.87793 17.3622 2.28526 17.3623 2.78809V4.60938H19.1836C19.6864 4.60953 20.0938 5.01765 20.0938 5.52051C20.0937 6.02332 19.6864 6.43051 19.1836 6.43066H17.3623V8.25293C17.362 8.75566 16.954 9.16309 16.4512 9.16309C15.9484 9.16303 15.5413 8.75563 15.541 8.25293V6.43066H13.7188C13.2161 6.4304 12.8086 6.02325 12.8086 5.52051C12.8086 5.01771 13.216 4.60964 13.7188 4.60938H15.541V2.78809C15.5412 2.28529 15.9484 1.87798 16.4512 1.87793Z" fill="black"/>
</svg>
