<svg width="18" height="18" viewBox="0 0 18 18" fill="none" xmlns="http://www.w3.org/2000/svg">
<path d="M9.47217 16.0919V17.9999H11.4803L16.3776 13.3469L14.3694 11.439L9.47217 16.0919Z" fill="white"/>
<path d="M15.1559 5.39995L9.47243 0H1.89449C0.852519 0 0.00947265 0.809993 0.00947265 1.79998L0 16.1999C0 17.1899 0.843046 17.9998 1.88501 17.9998H7.57795V15.3449L15.1559 8.14493V5.39995ZM8.52519 6.29995V1.34999L13.735 6.29995H8.52519Z" fill="white"/>
<path d="M17.7232 10.7997L17.0506 10.1607C16.6812 9.80971 16.0844 9.80971 15.715 10.1607L15.0425 10.7997L17.0506 12.7077L17.7232 12.0687C18.0926 11.7177 18.0926 11.1507 17.7232 10.7997Z" fill="white"/>
</svg>
