<svg width="18" height="18" viewBox="0 0 18 18" fill="none" xmlns="http://www.w3.org/2000/svg">
<path d="M12.2639 3.36144C14.0094 3.36161 15.4254 4.77169 15.4383 6.5164C15.5015 6.51324 15.5652 6.51167 15.6289 6.51347C16.2757 6.53184 16.889 6.80689 17.3334 7.27774C17.7777 7.74862 18.0173 8.37702 17.999 9.02452C17.9807 9.67035 17.7066 10.2816 17.2386 10.7263L17.2396 10.7273L13.4787 14.3285C12.7358 15.1499 11.7049 15.5408 10.6268 15.5409H7.35067C7.02947 15.541 6.89641 15.6443 6.84538 15.7122C6.81204 15.7567 6.77381 15.7978 6.732 15.8345L6.06544 16.4177L6.27949 16.632C6.59196 16.945 6.5918 17.4522 6.27949 17.7652C5.96684 18.0783 5.46038 18.0782 5.1477 17.7652L4.35408 16.9706C4.34225 16.9598 4.33117 16.9481 4.31988 16.9364L1.0721 13.6845C1.06218 13.6752 1.05136 13.6661 1.04181 13.6562C1.03699 13.6512 1.03278 13.6456 1.02812 13.6405L0.234506 12.8459C-0.0781687 12.5328 -0.0781687 12.0258 0.234506 11.7127C0.547207 11.4 1.05373 11.3997 1.36629 11.7127L1.62822 11.975L5.61488 8.12716C6.05604 7.58731 6.71495 7.37864 7.35067 7.37854H9.20082C9.12811 7.11159 9.08849 6.83085 9.08842 6.54087C9.08842 4.78503 10.5102 3.36151 12.2639 3.36144ZM15.584 8.11639C15.3617 8.1101 15.1455 8.19248 14.9839 8.34538L14.979 8.35027L14.5167 8.77889C14.491 8.80479 14.4631 8.82826 14.4365 8.85327L11.5396 11.5473C11.5138 11.5714 11.4855 11.5919 11.4575 11.6119C11.0082 12.0267 10.4204 12.2607 9.80678 12.2607H8.1697C7.72772 12.2605 7.36827 11.9018 7.36827 11.4592C7.36853 11.0169 7.72788 10.658 8.1697 10.6578H9.80678C10.0287 10.6578 10.2421 10.5693 10.3991 10.4122C10.5558 10.2551 10.6443 10.0422 10.6444 9.82011C10.6443 9.59794 10.5559 9.3842 10.3991 9.22709C10.2421 9.07012 10.0286 8.98146 9.80678 8.98146H7.35067C7.02906 8.98156 6.89529 9.08482 6.8444 9.15271C6.81877 9.18692 6.79011 9.21893 6.75937 9.24861L2.76099 13.1091L4.93073 15.2816L5.62856 14.67C6.0696 14.1423 6.72143 13.9381 7.35067 13.938H10.6268C11.3296 13.9379 11.9161 13.6858 12.3166 13.2275C12.3321 13.2099 12.3486 13.1929 12.3655 13.1767L16.1323 9.56861L16.1362 9.56568C16.2978 9.41274 16.3918 9.20106 16.3981 8.97853C16.4043 8.75616 16.322 8.54037 16.1694 8.37865C16.0167 8.21694 15.8061 8.12278 15.584 8.11639ZM12.2639 4.96437C11.3946 4.96443 10.6893 5.67051 10.6893 6.54087C10.6897 7.41088 11.3949 8.11632 12.2639 8.11639C12.6415 8.11632 12.9877 7.98216 13.2588 7.76019L13.3966 7.63199C13.6689 7.34885 13.8372 6.96495 13.8374 6.54087C13.8374 5.67057 13.133 4.96453 12.2639 4.96437ZM4.07456 0C5.87332 0 7.33186 1.45969 7.3321 3.26065C7.33201 5.06173 5.87341 6.52227 4.07456 6.52227C2.27612 6.52178 0.818085 5.06143 0.817991 3.26065C0.818236 1.45999 2.27621 0.000489355 4.07456 0ZM4.07456 1.60292C3.16059 1.60341 2.41915 2.34548 2.41891 3.26065C2.419 4.17594 3.1605 4.91886 4.07456 4.91935C4.98903 4.91935 5.73109 4.17625 5.73119 3.26065C5.73094 2.34518 4.98894 1.60292 4.07456 1.60292Z" fill="#4A4A4A"/>
</svg>
