<svg width="17" height="17" viewBox="0 0 17 17" fill="none" xmlns="http://www.w3.org/2000/svg">
<path d="M7.44824 0C11.5618 0 14.8965 3.33563 14.8965 7.44922C14.8964 9.25278 14.2543 10.9057 13.1875 12.1943L16.0957 15.1016C16.3693 15.3752 16.369 15.819 16.0957 16.0928C15.8219 16.3665 15.3773 16.3665 15.1035 16.0928L12.1973 13.1865C10.9081 14.2547 9.25325 14.8975 7.44824 14.8975C3.33483 14.8974 0.000229392 11.5626 0 7.44922C0 3.33565 3.33469 3.44813e-05 7.44824 0ZM7.44824 1.40234C4.10901 1.40238 1.40234 4.10998 1.40234 7.44922C1.40257 10.7883 4.10915 13.4951 7.44824 13.4951C9.04222 13.4951 10.4911 12.8771 11.5713 11.8691C11.6036 11.8066 11.6438 11.7468 11.6963 11.6943C11.7484 11.6422 11.808 11.6026 11.8701 11.5703C12.8771 10.4904 13.494 9.04228 13.4941 7.44922C13.4941 4.10996 10.7875 1.40234 7.44824 1.40234Z" fill="#858585"/>
</svg>
