<svg width="16" height="22" viewBox="0 0 16 22" fill="none" xmlns="http://www.w3.org/2000/svg">
<path d="M7 3C6.44772 3 6 3.44772 6 4C6 4.55228 6.44772 5 7 5H9C9.55229 5 10 4.55228 10 4C10 3.44772 9.55229 3 9 3H7Z" fill="#2D2D2D"/>
<path fill-rule="evenodd" clip-rule="evenodd" d="M0 6.4C0 4.15979 0 3.03969 0.435974 2.18404C0.819467 1.43139 1.43139 0.819467 2.18404 0.435974C3.03969 0 4.15979 0 6.4 0H9.6C11.8402 0 12.9603 0 13.816 0.435974C14.5686 0.819467 15.1805 1.43139 15.564 2.18404C16 3.03969 16 4.15979 16 6.4V15.6C16 17.8402 16 18.9603 15.564 19.816C15.1805 20.5686 14.5686 21.1805 13.816 21.564C12.9603 22 11.8402 22 9.6 22H6.4C4.15979 22 3.03969 22 2.18404 21.564C1.43139 21.1805 0.819467 20.5686 0.435974 19.816C0 18.9603 0 17.8402 0 15.6V6.4ZM6.4 2H9.6C10.7531 2 11.4977 2.00156 12.0643 2.04785C12.6077 2.09225 12.8091 2.1676 12.908 2.21799C13.2843 2.40973 13.5903 2.71569 13.782 3.09202C13.8324 3.19091 13.9078 3.39235 13.9521 3.93567C13.9984 4.50235 14 5.24689 14 6.4V15.6C14 16.7531 13.9984 17.4977 13.9521 18.0643C13.9078 18.6077 13.8324 18.8091 13.782 18.908C13.5903 19.2843 13.2843 19.5903 12.908 19.782C12.8091 19.8324 12.6077 19.9078 12.0643 19.9521C11.4977 19.9984 10.7531 20 9.6 20H6.4C5.24689 20 4.50235 19.9984 3.93567 19.9521C3.39235 19.9078 3.19091 19.8324 3.09202 19.782C2.71569 19.5903 2.40973 19.2843 2.21799 18.908C2.1676 18.8091 2.09225 18.6077 2.04785 18.0643C2.00156 17.4977 2 16.7531 2 15.6V6.4C2 5.24689 2.00156 4.50235 2.04785 3.93567C2.09225 3.39235 2.1676 3.19091 2.21799 3.09202C2.40973 2.71569 2.71569 2.40973 3.09202 2.21799C3.19091 2.1676 3.39235 2.09225 3.93567 2.04785C4.50235 2.00156 5.24689 2 6.4 2Z" fill="#2D2D2D"/>
</svg>
