<svg width="20" height="20" viewBox="0 0 20 20" fill="none" xmlns="http://www.w3.org/2000/svg">
<path d="M9.99947 0C15.5223 0 19.9998 4.47668 20 9.99947C20 15.5224 15.5224 20 9.99947 20C4.47668 19.9998 0 15.5223 0 9.99947C0.000191736 4.4768 4.4768 0.000191731 9.99947 0ZM9.99947 1.8175C5.48098 1.8177 1.8177 5.48098 1.8175 9.99947C1.8175 14.5181 5.48086 18.1812 9.99947 18.1814C14.5182 18.1814 18.1814 14.5182 18.1814 9.99947C18.1812 5.48086 14.5181 1.8175 9.99947 1.8175ZM5.46317 9.09072C5.96502 9.09098 6.37192 9.49755 6.37192 9.99947C6.37192 10.5014 5.96502 10.908 5.46317 10.9082H5.45358C4.95149 10.9082 4.54483 10.5016 4.54483 9.99947C4.54483 9.49738 4.95149 9.09072 5.45358 9.09072H5.46317ZM10.0091 9.09072C10.5109 9.09098 10.9178 9.49755 10.9178 9.99947C10.9178 10.5014 10.5109 10.908 10.0091 10.9082H9.99947C9.49738 10.9082 9.09072 10.5016 9.09072 9.99947C9.09072 9.49738 9.49738 9.09072 9.99947 9.09072H10.0091ZM14.5549 9.09072C15.0568 9.09098 15.4637 9.49755 15.4637 9.99947C15.4637 10.5014 15.0568 10.908 14.5549 10.9082H14.5454C14.0433 10.9082 13.6366 10.5016 13.6366 9.99947C13.6366 9.49738 14.0433 9.09072 14.5454 9.09072H14.5549Z" fill="#4A4A4A"/>
</svg>
